<?xml version="1.0" encoding="UTF-8"?>
<svg id="logosandtypes_com" data-name="logosandtypes com" xmlns="http://www.w3.org/2000/svg" viewBox="0 0 150 150">
  <defs>
    <style>
      .cls-1 {
        fill: none;
      }
    </style>
  </defs>
  <path class="cls-1" d="M0,0H150V150H0V0Z"/>
  <path id="path20840" d="M141.17,68.86h-37.9c-2.71-15.12-15.59-23.52-29.59-23.62-14.37-.19-29.5,10.45-29.5,30.8,0,17.08,16.61,28.66,30.52,28.66,9.05,0,25.2-7.37,25.2-19.32,0-8.59-15.03-7.84-16.05-7.84l-22.77-1.03v-1.03h80.55v3.55c-2.43,38.36-37.06,65.24-69.91,62.82C10.31,136.53,7.32,79.87,7.32,75.02,7.6,38.71,36.35,8.28,74.9,8.28c29.78,0,61.98,21.75,66.27,60.58"/>
</svg>